<?xml version="1.0" standalone="no"?>
<!DOCTYPE svg PUBLIC "-//W3C//DTD SVG 20010904//EN"
 "http://www.w3.org/TR/2001/REC-SVG-20010904/DTD/svg10.dtd">
<svg version="1.0" xmlns="http://www.w3.org/2000/svg"
 width="874.000000pt" height="874.000000pt" viewBox="0 0 874.000000 874.000000"
 preserveAspectRatio="xMidYMid meet">
<metadata>
Created by potrace 1.14, written by Peter Selinger 2001-2017
</metadata>
<g transform="translate(0.000000,874.000000) scale(0.100000,-0.100000)"
fill="#000000" stroke="none">
<path d="M4398 7055 c-1 -1 -23 -5 -48 -8 -106 -12 -217 -63 -272 -126 -53
-61 -63 -75 -89 -122 -13 -24 -27 -46 -30 -49 -3 -3 -33 -63 -68 -135 -34 -71
-66 -137 -70 -145 -4 -8 -13 -24 -19 -35 -5 -11 -23 -47 -38 -80 -15 -33 -45
-98 -67 -145 -23 -47 -41 -87 -42 -90 0 -3 -20 -43 -44 -90 -23 -47 -42 -86
-42 -88 1 -1 -28 -61 -64 -132 -36 -71 -65 -133 -64 -136 0 -4 -3 -10 -8 -13
-4 -3 -33 -55 -64 -116 -67 -130 -140 -270 -179 -340 -15 -27 -41 -75 -57
-105 -17 -30 -63 -111 -103 -180 -40 -69 -78 -134 -84 -145 -6 -11 -24 -39
-39 -62 -15 -24 -27 -47 -27 -53 0 -5 -4 -10 -8 -10 -5 0 -16 -16 -25 -36 -10
-19 -22 -40 -28 -47 -5 -7 -33 -48 -61 -92 -29 -44 -56 -85 -62 -92 -6 -6 -36
-46 -65 -87 -30 -42 -60 -76 -66 -76 -11 0 -177 58 -230 80 -11 4 -33 13 -50
18 -16 6 -39 13 -50 18 -11 4 -24 8 -30 10 -5 2 -75 24 -155 49 -134 43 -187
57 -265 71 -16 3 -36 7 -43 9 -82 28 -495 24 -647 -6 -27 -6 -63 -12 -79 -14
-16 -3 -54 -12 -85 -21 -31 -9 -60 -18 -66 -19 -100 -28 -239 -104 -360 -194
-93 -69 -280 -258 -334 -336 -46 -67 -121 -226 -121 -257 0 -8 -3 -18 -7 -22
-4 -3 -8 -12 -9 -19 -1 -7 -7 -35 -13 -64 -6 -29 -11 -80 -12 -115 -1 -56 2
-80 16 -163 4 -26 48 -140 70 -183 53 -103 162 -230 235 -275 19 -11 37 -24
40 -28 16 -22 269 -123 340 -136 14 -2 41 -8 60 -14 99 -28 381 -31 530 -5 14
3 42 7 64 10 21 4 41 8 45 11 4 2 18 6 32 9 13 3 35 7 49 10 39 8 157 51 246
89 75 32 242 122 254 136 3 3 30 22 60 42 152 100 325 260 431 401 82 108 86
111 121 86 49 -35 295 -285 398 -404 82 -95 202 -315 271 -499 23 -60 42 -114
44 -120 1 -5 5 -17 8 -25 6 -16 41 -131 42 -140 0 -3 6 -23 12 -45 7 -22 22
-74 34 -115 57 -200 152 -312 302 -355 134 -38 308 9 419 113 37 34 62 72 94
139 24 50 46 104 50 120 4 15 10 33 15 38 4 6 7 12 8 15 0 21 83 223 134 330
92 192 203 365 322 504 103 120 435 444 506 494 13 9 33 25 44 35 11 11 61 46
110 78 50 33 95 63 102 69 7 5 14 10 16 10 2 0 53 28 113 61 166 93 486 245
507 241 4 -1 7 3 7 8 0 6 5 10 11 10 7 0 84 29 173 64 158 63 571 206 593 206
7 0 24 5 40 12 15 6 30 12 33 13 3 0 30 7 60 15 30 7 70 19 88 27 17 7 32 11
32 9 0 -3 18 1 40 9 22 8 41 14 43 14 1 0 9 2 17 4 34 11 188 47 219 52 19 3
39 9 45 12 6 4 17 8 26 9 27 3 83 15 89 19 4 2 27 6 51 10 25 3 61 10 80 15
19 5 53 12 75 15 22 4 47 8 55 10 8 3 33 7 55 10 22 4 52 8 68 11 15 2 39 6
55 8 85 14 241 34 309 41 225 22 272 42 306 125 18 43 13 82 -16 135 -39 71
-34 70 -477 70 -355 0 -510 -5 -680 -19 -30 -3 -87 -8 -126 -10 -39 -3 -86 -8
-105 -10 -19 -3 -59 -8 -89 -11 -30 -3 -71 -8 -90 -10 -19 -2 -57 -7 -85 -10
-27 -4 -57 -8 -65 -10 -8 -2 -37 -7 -65 -10 -67 -10 -84 -12 -122 -19 -63 -11
-98 -17 -123 -21 -14 -2 -59 -11 -100 -20 -41 -9 -86 -19 -100 -21 -14 -3 -54
-12 -90 -20 -36 -9 -73 -17 -83 -19 -10 -2 -27 -7 -37 -10 -10 -3 -27 -8 -37
-10 -10 -2 -43 -11 -73 -20 -30 -8 -62 -17 -71 -19 -34 -9 -165 -47 -179 -53
-8 -4 -17 -7 -20 -8 -59 -15 -329 -116 -418 -156 -35 -16 -66 -29 -69 -29 -11
0 -309 -152 -324 -166 -9 -8 -18 -12 -21 -9 -3 3 -11 -1 -18 -10 -7 -8 -19
-15 -26 -15 -8 0 -14 -4 -14 -10 0 -5 -5 -10 -10 -10 -19 0 -278 -179 -376
-260 -17 -14 -42 -34 -55 -44 -146 -119 -335 -306 -446 -441 -94 -114 -86
-102 -167 -223 -39 -56 -73 -102 -76 -102 -3 0 -23 27 -44 60 -94 148 -192
266 -366 441 -114 115 -239 222 -313 268 l-38 23 -71 -48 c-39 -27 -78 -54
-87 -59 -9 -6 -35 -23 -59 -38 -23 -15 -56 -30 -72 -34 -26 -5 -30 -2 -30 15
0 11 6 27 13 34 6 8 18 24 25 36 32 57 38 67 45 76 9 12 132 202 186 287 19
30 49 77 68 105 18 28 33 56 33 62 0 6 4 12 8 14 9 3 219 356 288 483 12 22
51 94 87 160 120 221 206 388 385 745 97 195 177 357 177 360 0 3 7 16 15 30
8 14 15 27 15 30 1 3 43 89 93 192 99 199 131 241 197 254 31 5 125 -10 150
-25 6 -3 15 -6 20 -7 25 -5 510 -181 590 -214 11 -5 46 -18 77 -29 32 -11 66
-25 75 -30 10 -5 59 -28 108 -51 50 -24 92 -46 95 -49 3 -3 30 -25 61 -48 124
-95 217 -224 296 -413 53 -125 65 -174 63 -245 -1 -60 -8 -69 -56 -67 -36 1
-219 57 -239 72 -5 5 -14 9 -20 10 -18 4 -238 88 -290 110 -27 12 -235 94
-415 164 -80 31 -154 60 -165 65 -11 5 -24 10 -30 11 -5 2 -40 14 -78 27 -37
13 -84 24 -105 25 -77 3 -142 -58 -150 -141 -6 -70 21 -96 192 -180 79 -39
146 -71 149 -71 4 0 35 -13 69 -29 57 -26 181 -80 233 -102 11 -4 43 -18 70
-30 28 -11 64 -27 80 -34 17 -7 46 -20 65 -28 348 -152 598 -245 684 -253 54
-6 146 19 181 48 58 46 124 121 143 161 42 89 49 349 16 547 -32 184 -178 447
-341 614 -103 104 -184 161 -338 236 -156 76 -178 86 -440 200 -66 29 -133 58
-150 65 -97 43 -179 75 -191 75 -8 0 -14 4 -14 8 0 5 -6 9 -12 10 -7 0 -50 14
-95 30 -46 16 -83 28 -83 27 0 -2 -15 1 -32 6 -18 5 -64 12 -103 15 -38 3 -75
7 -82 9 -6 2 -13 2 -15 0z"/>
</g>
</svg>
