<svg
  width="437"
  height="269"
  viewBox="0 0 437 269"
  fill="none"
  xmlns="http://www.w3.org/2000/svg"
>

  <style>
    path { fill: #1a1b1e; }
    @media (prefers-color-scheme: dark) {
      path { fill: #eae9e7; }
    }
  </style>

  <path
    fill-rule="evenodd"
    clip-rule="evenodd"
    d="M30.213 166.644C35.926 161.3 41.011 158.745 51.263 156.068C61.046 153.514 70.443 153.513 81.317 156.066C90.112 158.131 108.314 166.398 109.006 168.642C109.535 170.361 98.738 181.56 91.727 186.563C62.919 207.12 26.046 204.997 23.526 182.637C22.811 176.297 24.686 171.814 30.213 166.644Z"
  />
  <path
    fill-rule="evenodd"
    clip-rule="evenodd"
    d="M237.86 3.86701C249.297 8.10801 279.835 21.625 286.263 25.294C298.438 32.241 309.473 46.715 313.867 61.5C316.027 68.768 316.355 85.722 314.442 91.184C312.739 96.047 306.382 101.699 301.611 102.594C296.582 103.538 292.588 102.355 273.188 94.178C233.48 77.441 223.062 72.622 221.532 70.288C219.36 66.973 220.921 61.939 224.682 60.132C228.388 58.351 228.466 58.375 264.978 72.936C298.598 86.343 298.842 86.38 298.033 77.959C297.762 75.14 295.836 69.507 293.424 64.479C288.178 53.547 281.236 46.487 271.017 41.69C264.709 38.729 236.905 28.429 226.041 25.029C221.192 23.511 217.413 25.22 215.023 30.011C214.066 31.93 207.447 45.425 200.315 60C180.607 100.276 165.093 128.17 148.103 153.874C143.241 161.229 139.263 167.642 139.263 168.124C139.263 170.172 143.167 168.675 148.743 164.489C152.033 162.02 155.025 160 155.394 160C155.763 160 158.718 161.995 161.961 164.432C170.125 170.569 183.182 184.399 188.827 192.887L193.544 199.981L199.153 191.743C210.399 175.228 231.196 156.547 251.719 144.525C290.651 121.72 347.888 109 411.57 109C429.36 109 432.342 109.222 433.775 110.655C437.875 114.755 437.55 120.499 433.058 123.353C431.796 124.155 427.388 125.116 423.263 125.488C370.823 130.22 300.965 153.289 267.777 176.835C257.329 184.247 238.042 203.524 231.593 213C225.03 222.643 219.26 234.165 215.318 245.5C213.596 250.45 211.186 256.284 209.963 258.465C205.024 267.27 191.298 271.609 182.531 267.137C176.243 263.929 172.711 258.877 170.275 249.609C164.847 228.958 159.675 216.631 151.767 205.5C147.595 199.627 130.099 181.954 128.548 182.047C128.116 182.073 126.188 184.354 124.263 187.116C116.831 197.781 100.377 210.604 86.771 216.334C75.45 221.103 67.453 222.975 55.763 223.592C46.06 224.104 43.609 223.873 34.971 221.633C18.654 217.402 9.55302 210.428 3.71802 197.683C-1.12398 187.105 -0.605982 176.872 5.41802 164.096C7.75702 159.135 10.681 155.393 17.213 149C31.535 134.982 45.051 129.396 67.263 128.316C83.621 127.52 93.079 129.437 118.64 138.726L128.517 142.315L130.386 139.908C144.543 121.675 166.872 81.487 187.284 37.504C199.325 11.557 202.418 6.58201 208.481 3.40601C216.331 -0.706989 225.928 -0.555991 237.86 3.86701ZM30.213 166.644C35.926 161.3 41.011 158.745 51.263 156.068C61.046 153.514 70.443 153.513 81.317 156.066C90.112 158.131 108.314 166.398 109.006 168.642C109.535 170.361 98.738 181.56 91.727 186.563C62.919 207.12 26.046 204.997 23.526 182.637C22.811 176.297 24.686 171.814 30.213 166.644Z"
  />
  <path
    fill-rule="evenodd"
    clip-rule="evenodd"
    d="M30.213 166.644C35.926 161.3 41.011 158.745 51.263 156.068C61.046 153.514 70.443 153.513 81.317 156.066C90.112 158.131 108.314 166.398 109.006 168.642C109.535 170.361 98.738 181.56 91.727 186.563C62.919 207.12 26.046 204.997 23.526 182.637C22.811 176.297 24.686 171.814 30.213 166.644Z"
  />
  <path
    fill-rule="evenodd"
    clip-rule="evenodd"
    d="M237.86 3.86701C249.297 8.10801 279.835 21.625 286.263 25.294C298.438 32.241 309.473 46.715 313.867 61.5C316.027 68.768 316.355 85.722 314.442 91.184C312.739 96.047 306.382 101.699 301.611 102.594C296.582 103.538 292.588 102.355 273.188 94.178C233.48 77.441 223.062 72.622 221.532 70.288C219.36 66.973 220.921 61.939 224.682 60.132C228.388 58.351 228.466 58.375 264.978 72.936C298.598 86.343 298.842 86.38 298.033 77.959C297.762 75.14 295.836 69.507 293.424 64.479C288.178 53.547 281.236 46.487 271.017 41.69C264.709 38.729 236.905 28.429 226.041 25.029C221.192 23.511 217.413 25.22 215.023 30.011C214.066 31.93 207.447 45.425 200.315 60C180.607 100.276 165.093 128.17 148.103 153.874C143.241 161.229 139.263 167.642 139.263 168.124C139.263 170.172 143.167 168.675 148.743 164.489C152.033 162.02 155.025 160 155.394 160C155.763 160 158.718 161.995 161.961 164.432C170.125 170.569 183.182 184.399 188.827 192.887L193.544 199.981L199.153 191.743C210.399 175.228 231.196 156.547 251.719 144.525C290.651 121.72 347.888 109 411.57 109C429.36 109 432.342 109.222 433.775 110.655C437.875 114.755 437.55 120.499 433.058 123.353C431.796 124.155 427.388 125.116 423.263 125.488C370.823 130.22 300.965 153.289 267.777 176.835C257.329 184.247 238.042 203.524 231.593 213C225.03 222.643 219.26 234.165 215.318 245.5C213.596 250.45 211.186 256.284 209.963 258.465C205.024 267.27 191.298 271.609 182.531 267.137C176.243 263.929 172.711 258.877 170.275 249.609C164.847 228.958 159.675 216.631 151.767 205.5C147.595 199.627 130.099 181.954 128.548 182.047C128.116 182.073 126.188 184.354 124.263 187.116C116.831 197.781 100.377 210.604 86.771 216.334C75.45 221.103 67.453 222.975 55.763 223.592C46.06 224.104 43.609 223.873 34.971 221.633C18.654 217.402 9.55302 210.428 3.71802 197.683C-1.12398 187.105 -0.605982 176.872 5.41802 164.096C7.75702 159.135 10.681 155.393 17.213 149C31.535 134.982 45.051 129.396 67.263 128.316C83.621 127.52 93.079 129.437 118.64 138.726L128.517 142.315L130.386 139.908C144.543 121.675 166.872 81.487 187.284 37.504C199.325 11.557 202.418 6.58201 208.481 3.40601C216.331 -0.706989 225.928 -0.555991 237.86 3.86701ZM30.213 166.644C35.926 161.3 41.011 158.745 51.263 156.068C61.046 153.514 70.443 153.513 81.317 156.066C90.112 158.131 108.314 166.398 109.006 168.642C109.535 170.361 98.738 181.56 91.727 186.563C62.919 207.12 26.046 204.997 23.526 182.637C22.811 176.297 24.686 171.814 30.213 166.644Z"
  />
</svg>